    <svg
              xmlns="http://www.w3.org/2000/svg"
              width="16"
              height="16"
              viewBox="0 0 448 512"
              fill="currentColor"
            >
              <path
                d="M224.1 141c-63.6 0-115 51.4-115 115s51.4 115 115 115 
           115-51.4 115-115-51.4-115-115-115zm0 
           190c-41.4 0-75-33.6-75-75s33.6-75 
           75-75 75 33.6 75 75-33.6 75-75 
           75zm146.4-194.3c0 14.9-12 26.9-26.9 
           26.9-14.9 0-26.9-12-26.9-26.9 
           0-14.9 12-26.9 26.9-26.9 
           14.9 0 26.9 12 26.9 
           26.9zm76.1 27.2c-.1-54.5-44.2-98.6-98.8-98.7H100.8C46.3 
           65.2 2.2 109.3 2.1 
           163.8v184.4c.1 54.5 44.2 98.6 98.7 
           98.7h246.9c54.5-.1 98.6-44.2 
           98.7-98.7V163.8zM398.8 
           348.2c0 27.2-22 49.2-49.2 
           49.2H98.4c-27.2 0-49.2-22-49.2-49.2V163.8c0-27.2 
           22-49.2 49.2-49.2h251.2c27.2 
           0 49.2 22 49.2 49.2v184.4z"
              />
            </svg>