<svg xmlns="http://www.w3.org/2000/svg" xmlns:xlink="http://www.w3.org/1999/xlink" width="500" zoomAndPan="magnify" viewBox="0 0 375 374.999991" height="500" preserveAspectRatio="xMidYMid meet" version="1.0"><defs><filter x="0%" y="0%" width="100%" height="100%" id="90257810ed"><feColorMatrix values="0 0 0 0 1 0 0 0 0 1 0 0 0 0 1 0 0 0 1 0" color-interpolation-filters="sRGB"/></filter><g/><mask id="7033f0df4c"><g filter="url(#90257810ed)"><rect x="-37.5" width="450" fill="#000000" y="-37.499999" height="449.999989" fill-opacity="0.73"/></g></mask><clipPath id="f253280d31"><path d="M 53 69 L 64 69 L 64 82.257812 L 53 82.257812 Z M 53 69 " clip-rule="nonzero"/></clipPath><clipPath id="28e4a8fa03"><path d="M 0.328125 37 L 14 37 L 14 43 L 0.328125 43 Z M 0.328125 37 " clip-rule="nonzero"/></clipPath><clipPath id="6ef9ac4617"><path d="M 282 0.507812 L 296 0.507812 L 296 6 L 282 6 Z M 282 0.507812 " clip-rule="nonzero"/></clipPath><clipPath id="fb6b3fcb4a"><path d="M 360 53 L 373 53 L 373 66 L 360 66 Z M 360 53 " clip-rule="nonzero"/></clipPath><clipPath id="d1cf6e96f3"><rect x="0" width="373" y="0" height="84"/></clipPath></defs><g fill="#000000" fill-opacity="1"><g transform="translate(0.0000045, 210.992822)"><g><path d="M 17.84375 -66.027344 C 10.9375 -66.4375 4.605469 -65.535156 2.878906 -64.710938 C 3.207031 -63.890625 3.289062 -63.148438 3.289062 -62.492188 C 3.535156 -58.214844 3.863281 -46.539062 3.863281 -30.257812 C 3.863281 -10.03125 3.289062 -5.34375 3.289062 -4.605469 C 3.289062 -2.960938 3.207031 -0.90625 2.878906 0 L 11.675781 0 C 11.429688 -0.90625 11.019531 -2.796875 10.9375 -4.6875 C 10.769531 -9.621094 10.6875 -21.625 10.9375 -23.351562 C 12.414062 -22.941406 15.871094 -22.28125 19.242188 -22.28125 C 23.84375 -22.28125 35.355469 -25.984375 35.355469 -44.566406 C 35.355469 -63.230469 23.515625 -65.78125 17.84375 -66.027344 Z M 18.417969 -29.765625 C 15.703125 -29.765625 12.664062 -30.09375 10.9375 -31 C 10.855469 -31.984375 10.769531 -36.097656 10.769531 -43.578125 C 10.769531 -51.472656 10.855469 -56.734375 10.9375 -58.460938 C 12.414062 -59.203125 14.472656 -59.449219 17.515625 -59.285156 C 19.40625 -59.121094 27.464844 -57.394531 27.464844 -44.484375 C 27.464844 -31.574219 21.707031 -29.765625 18.417969 -29.765625 Z M 18.417969 -29.765625 "/></g></g></g><g fill="#000000" fill-opacity="1"><g transform="translate(36.836833, 210.992822)"><g><path d="M 32.148438 0 C 31.820312 -0.328125 31.65625 -0.90625 31.65625 -1.234375 C 27.214844 -20.886719 23.269531 -43.414062 20.636719 -63.476562 C 20.554688 -64.21875 20.308594 -65.285156 20.71875 -65.78125 L 20.554688 -65.78125 C 18.253906 -65.78125 13.894531 -65.78125 12.992188 -65.78125 L 12.828125 -65.78125 C 13.238281 -65.285156 12.992188 -64.21875 12.910156 -63.476562 C 10.277344 -43.414062 6.332031 -20.886719 1.890625 -1.234375 C 1.808594 -0.90625 1.726562 -0.328125 1.398438 0 L 9.210938 0 C 8.960938 -0.574219 9.128906 -1.5625 9.210938 -2.054688 C 10.113281 -7.730469 11.347656 -15.789062 12.910156 -25.078125 C 15.210938 -24.914062 17.84375 -24.832031 20.636719 -25.078125 C 22.199219 -15.789062 23.433594 -7.730469 24.257812 -2.054688 C 24.339844 -1.5625 24.503906 -0.574219 24.339844 0 Z M 14.058594 -31.902344 C 14.882812 -36.671875 15.789062 -41.605469 16.773438 -46.785156 C 17.761719 -41.6875 18.582031 -36.671875 19.40625 -31.984375 C 17.679688 -31.738281 15.871094 -31.738281 14.058594 -31.902344 Z M 14.058594 -31.902344 "/></g></g></g><g fill="#000000" fill-opacity="1"><g transform="translate(70.466886, 210.992822)"><g><path d="M 37.414062 0 C 36.835938 -0.328125 36.589844 -0.65625 36.589844 -1.070312 C 34.042969 -14.144531 32.066406 -19.40625 27.382812 -26.640625 C 31.574219 -29.519531 35.4375 -35.273438 35.4375 -46.128906 C 35.4375 -64.792969 22.859375 -66.4375 17.265625 -66.4375 C 12.332031 -66.4375 4.6875 -66.109375 2.960938 -65.285156 C 3.289062 -64.546875 3.371094 -63.804688 3.371094 -63.148438 C 3.617188 -59.285156 3.945312 -48.101562 3.945312 -31.820312 C 3.945312 -11.59375 3.371094 -5.34375 3.371094 -4.605469 C 3.289062 -2.960938 3.207031 -0.90625 2.878906 0 L 11.675781 0 C 11.429688 -0.90625 11.101562 -2.796875 11.019531 -4.6875 C 10.855469 -9.621094 10.769531 -23.1875 11.019531 -24.914062 C 12.414062 -24.421875 15.953125 -23.84375 19.324219 -23.84375 L 19.980469 -23.84375 C 25.160156 -16.691406 28.285156 -7.730469 28.285156 -0.90625 C 28.285156 -0.738281 28.203125 -0.328125 27.875 0 Z M 10.769531 -45.140625 C 10.769531 -53.035156 10.9375 -57.0625 11.019531 -57.886719 C 11.921875 -58.542969 15.210938 -58.707031 17.019531 -58.707031 C 20.0625 -58.707031 27.546875 -58.957031 27.546875 -46.046875 C 27.546875 -33.136719 21.789062 -31.246094 18.5 -31.246094 C 15.789062 -31.246094 12.746094 -31.65625 11.019531 -32.5625 C 10.9375 -33.546875 10.769531 -37.660156 10.769531 -45.140625 Z M 10.769531 -45.140625 "/></g></g></g><g fill="#000000" fill-opacity="1"><g transform="translate(109.359344, 210.992822)"><g><path d="M 26.558594 -65.78125 C 25.488281 -65.78125 23.1875 -65.78125 20.804688 -65.78125 L 6.003906 -65.78125 C 4.359375 -65.78125 2.300781 -65.863281 1.398438 -66.191406 C 1.398438 -65.367188 1.398438 -63.640625 1.398438 -61.914062 L 1.398438 -57.722656 C 2.300781 -58.050781 4.359375 -58.050781 6.003906 -58.132812 C 6.660156 -58.132812 9.042969 -58.296875 12.664062 -58.132812 C 12.746094 -54.679688 12.910156 -47.609375 12.910156 -34.042969 C 12.910156 -8.878906 12.5 -5.261719 12.5 -4.605469 C 12.5 -3.042969 12.414062 -0.820312 12.085938 0.0820312 C 12.910156 0.0820312 14.636719 0.0820312 16.363281 0.0820312 L 20.554688 0.0820312 C 20.226562 -0.820312 20.144531 -3.042969 20.144531 -4.605469 C 20.144531 -4.933594 19.816406 -19.816406 19.816406 -34.042969 C 19.816406 -47.363281 19.980469 -54.597656 20.0625 -58.132812 C 23.597656 -58.296875 24.914062 -58.214844 26.558594 -58.132812 C 28.449219 -58.050781 30.339844 -57.886719 31.246094 -57.722656 C 31.246094 -58.542969 31.246094 -60.269531 31.246094 -61.914062 L 31.246094 -66.109375 C 30.339844 -65.945312 28.449219 -65.78125 26.558594 -65.78125 Z M 26.558594 -65.78125 "/></g></g></g><g fill="#000000" fill-opacity="1"><g transform="translate(142.084912, 210.992822)"><g><path d="M 30.175781 -65.78125 C 30.339844 -65.449219 30.339844 -65.039062 30.257812 -64.875 L 19.898438 -40.949219 L 9.621094 -64.875 C 9.539062 -65.039062 9.457031 -65.449219 9.703125 -65.78125 L 1.398438 -65.78125 C 1.726562 -65.535156 2.054688 -65.039062 2.21875 -64.710938 L 16.199219 -32.398438 L 16.199219 -4.605469 C 16.199219 -2.960938 15.953125 -0.90625 15.621094 0 C 16.445312 0 18.171875 0 19.898438 0 L 24.175781 0 C 23.84375 -0.90625 23.597656 -2.960938 23.597656 -4.605469 L 23.597656 -32.398438 L 37.578125 -64.710938 C 37.742188 -65.039062 38.070312 -65.535156 38.398438 -65.78125 Z M 30.175781 -65.78125 "/></g></g></g><g fill="#000000" fill-opacity="1"><g transform="translate(181.964065, 210.992822)"><g/></g></g><g fill="#000000" fill-opacity="1"><g transform="translate(199.395769, 210.992822)"><g><path d="M 16.363281 0.65625 C 26.804688 0.65625 32.972656 -6.496094 32.972656 -18.582031 C 32.972656 -30.835938 21.789062 -37.824219 14.308594 -42.429688 C 9.785156 -45.222656 8.878906 -48.265625 8.878906 -51.964844 C 8.878906 -56.324219 12.003906 -59.285156 16.691406 -59.285156 C 22.117188 -59.285156 24.503906 -57.230469 24.832031 -52.128906 L 31.984375 -52.625 C 31.410156 -61.503906 25.984375 -66.4375 16.691406 -66.4375 C 8.058594 -66.4375 1.726562 -60.351562 1.726562 -51.964844 C 1.726562 -45.058594 4.523438 -40.125 10.523438 -36.34375 C 18.582031 -31.328125 25.902344 -26.230469 25.902344 -18.582031 C 25.902344 -6.496094 18.664062 -6.496094 16.363281 -6.496094 C 9.457031 -6.496094 8.550781 -14.636719 8.46875 -14.964844 L 1.398438 -14.226562 C 1.480469 -13.074219 2.054688 -9.042969 4.6875 -5.34375 C 7.484375 -1.398438 11.511719 0.65625 16.363281 0.65625 Z M 16.363281 0.65625 "/></g></g></g><g fill="#000000" fill-opacity="1"><g transform="translate(233.848068, 210.992822)"><g><path d="M 31.65625 -34.042969 C 31.65625 -49.664062 31.820312 -58.625 31.984375 -61.09375 C 31.984375 -62.984375 32.398438 -64.875 32.726562 -65.78125 C 31.738281 -65.78125 29.847656 -65.78125 28.203125 -65.78125 L 23.679688 -65.78125 C 23.925781 -64.875 24.339844 -62.984375 24.339844 -61.09375 C 24.503906 -59.039062 24.75 -50.320312 24.75 -34.042969 L 24.75 -32.644531 C 23.1875 -32.644531 21.050781 -32.5625 18.171875 -32.5625 C 14.964844 -32.5625 12.582031 -32.644531 10.855469 -32.644531 L 10.855469 -34.042969 C 10.855469 -49.664062 11.101562 -58.625 11.265625 -61.09375 C 11.265625 -62.984375 11.675781 -64.875 11.921875 -65.78125 C 10.9375 -65.78125 9.042969 -65.78125 7.398438 -65.78125 L 2.878906 -65.78125 C 3.207031 -64.875 3.617188 -62.984375 3.617188 -61.09375 C 3.78125 -59.039062 4.027344 -50.320312 4.027344 -34.042969 C 4.027344 -8.878906 3.617188 -5.261719 3.617188 -4.605469 C 3.617188 -2.960938 3.453125 -0.90625 3.125 0 C 3.945312 0 5.671875 0 7.398438 0 L 11.675781 0 C 11.347656 -0.90625 11.265625 -2.960938 11.265625 -4.605469 C 11.265625 -4.851562 11.019531 -14.472656 10.9375 -25.570312 C 13.074219 -25.652344 15.621094 -25.738281 18.171875 -25.738281 C 21.050781 -25.738281 23.1875 -25.652344 24.75 -25.652344 C 24.667969 -7.976562 24.339844 -5.179688 24.339844 -4.605469 C 24.339844 -2.960938 24.257812 -0.90625 23.925781 0 C 24.75 0 26.476562 0 28.203125 0 L 32.398438 0 C 32.066406 -0.90625 31.984375 -2.960938 31.984375 -4.605469 C 31.984375 -4.933594 31.65625 -19.816406 31.65625 -34.042969 Z M 31.65625 -34.042969 "/></g></g></g><g fill="#000000" fill-opacity="1"><g transform="translate(269.451512, 210.992822)"><g><path d="M 18.007812 0.328125 C 29.109375 0.328125 34.617188 -8.304688 34.617188 -32.890625 C 34.617188 -57.476562 29.109375 -66.109375 18.007812 -66.109375 C 6.90625 -66.109375 1.398438 -57.476562 1.398438 -32.890625 C 1.398438 -8.304688 6.90625 0.328125 18.007812 0.328125 Z M 18.007812 -6.414062 C 10.605469 -6.414062 8.140625 -16.28125 8.140625 -32.890625 C 8.140625 -49.5 10.605469 -59.367188 18.007812 -59.367188 C 25.40625 -59.367188 27.875 -49.5 27.875 -32.890625 C 27.875 -16.28125 25.40625 -6.414062 18.007812 -6.414062 Z M 18.007812 -6.414062 "/></g></g></g><g fill="#000000" fill-opacity="1"><g transform="translate(305.548304, 210.992822)"><g><path d="M 17.84375 -66.027344 C 10.9375 -66.4375 4.605469 -65.535156 2.878906 -64.710938 C 3.207031 -63.890625 3.289062 -63.148438 3.289062 -62.492188 C 3.535156 -58.214844 3.863281 -46.539062 3.863281 -30.257812 C 3.863281 -10.03125 3.289062 -5.34375 3.289062 -4.605469 C 3.289062 -2.960938 3.207031 -0.90625 2.878906 0 L 11.675781 0 C 11.429688 -0.90625 11.019531 -2.796875 10.9375 -4.6875 C 10.769531 -9.621094 10.6875 -21.625 10.9375 -23.351562 C 12.414062 -22.941406 15.871094 -22.28125 19.242188 -22.28125 C 23.84375 -22.28125 35.355469 -25.984375 35.355469 -44.566406 C 35.355469 -63.230469 23.515625 -65.78125 17.84375 -66.027344 Z M 18.417969 -29.765625 C 15.703125 -29.765625 12.664062 -30.09375 10.9375 -31 C 10.855469 -31.984375 10.769531 -36.097656 10.769531 -43.578125 C 10.769531 -51.472656 10.855469 -56.734375 10.9375 -58.460938 C 12.414062 -59.203125 14.472656 -59.449219 17.515625 -59.285156 C 19.40625 -59.121094 27.464844 -57.394531 27.464844 -44.484375 C 27.464844 -31.574219 21.707031 -29.765625 18.417969 -29.765625 Z M 18.417969 -29.765625 "/></g></g></g><g fill="#000000" fill-opacity="1"><g transform="translate(342.385132, 210.992822)"><g><path d="M 24.007812 -7.730469 L 11.265625 -7.730469 C 11.019531 -12.582031 10.9375 -21.542969 11.265625 -28.859375 L 16.691406 -28.859375 C 18.5 -28.859375 20.390625 -28.449219 21.378906 -28.203125 C 21.378906 -29.191406 21.378906 -31.082031 21.378906 -32.726562 L 21.378906 -37.246094 C 20.390625 -36.917969 18.5 -36.507812 16.691406 -36.507812 L 11.265625 -36.507812 C 11.265625 -38.398438 11.101562 -38.480469 11.101562 -46.539062 C 11.101562 -52.210938 11.183594 -56.488281 11.265625 -58.132812 L 23.925781 -58.132812 C 25.820312 -58.132812 27.710938 -57.722656 28.613281 -57.394531 C 28.613281 -58.378906 28.613281 -60.269531 28.613281 -61.914062 L 28.613281 -66.4375 C 27.710938 -66.191406 25.820312 -65.78125 23.925781 -65.78125 L 11.921875 -65.78125 C 10.9375 -65.78125 9.042969 -65.78125 7.398438 -65.78125 L 2.878906 -65.78125 C 3.207031 -64.875 3.617188 -62.984375 3.617188 -61.09375 C 3.617188 -58.296875 3.699219 -50.074219 3.699219 -37.578125 C 3.699219 -13.730469 3.617188 -5.34375 3.617188 -4.605469 C 3.617188 -3.042969 3.453125 -0.90625 3.125 0 L 3.371094 0 C 3.617188 0 4.027344 0 4.605469 0 L 24.007812 0 C 25.902344 0 27.792969 0.410156 28.777344 0.65625 C 28.777344 -0.328125 28.777344 -2.21875 28.777344 -3.863281 L 28.777344 -8.386719 C 27.792969 -8.140625 25.902344 -7.730469 24.007812 -7.730469 Z M 24.007812 -7.730469 "/></g></g></g><g mask="url(#7033f0df4c)"><g transform="matrix(1, 0, 0, 1, 2, 146)"><g clip-path="url(#d1cf6e96f3)"><path fill="#f9d563" d="M 174.085938 23.144531 L 177.632812 25.230469 L 171.15625 36.175781 L 167.609375 34.09375 Z M 174.085938 23.144531 " fill-opacity="1" fill-rule="nonzero"/><path fill="#e2dfd2" d="M 85.480469 28.703125 L 87.773438 25.296875 L 98.355469 32.382812 L 96.0625 35.789062 Z M 85.480469 28.703125 " fill-opacity="1" fill-rule="nonzero"/><path fill="#ff917b" d="M 112.664062 6.082031 L 115.550781 9.011719 L 106.453125 17.914062 L 103.570312 14.988281 Z M 112.664062 6.082031 " fill-opacity="1" fill-rule="nonzero"/><path fill="#f9d563" d="M 32.917969 25.371094 L 37.015625 24.960938 L 38.285156 37.605469 L 34.191406 38.015625 Z M 32.917969 25.371094 " fill-opacity="1" fill-rule="nonzero"/><path fill="#e2dfd2" d="M 63.589844 32.523438 L 66.363281 35.554688 L 56.949219 44.121094 L 54.175781 41.089844 Z M 63.589844 32.523438 " fill-opacity="1" fill-rule="nonzero"/><path fill="#ff917b" d="M 79.035156 63.402344 L 74.984375 62.671875 L 77.246094 50.167969 L 81.300781 50.894531 Z M 79.035156 63.402344 " fill-opacity="1" fill-rule="nonzero"/><path fill="#ff917b" d="M 101.855469 53.21875 L 103.945312 49.683594 L 114.925781 56.136719 L 112.835938 59.671875 Z M 101.855469 53.21875 " fill-opacity="1" fill-rule="nonzero"/><path fill="#ff917b" d="M 41.195312 66.453125 L 37.394531 64.875 L 42.296875 53.144531 L 46.097656 54.722656 Z M 41.195312 66.453125 " fill-opacity="1" fill-rule="nonzero"/><g clip-path="url(#f253280d31)"><path fill="#f9d563" d="M 57.042969 82.144531 L 53.496094 80.0625 L 59.96875 69.113281 L 63.515625 71.199219 Z M 57.042969 82.144531 " fill-opacity="1" fill-rule="nonzero"/></g><path fill="#e2dfd2" d="M 137.757812 51.859375 L 137.628906 47.757812 L 150.367188 47.351562 L 150.5 51.453125 Z M 137.757812 51.859375 " fill-opacity="1" fill-rule="nonzero"/><path fill="#e2dfd2" d="M 150.886719 8.527344 L 154.851562 7.417969 L 158.292969 19.65625 L 154.328125 20.765625 Z M 150.886719 8.527344 " fill-opacity="1" fill-rule="nonzero"/><path fill="#ff917b" d="M 168.828125 66.707031 L 166.167969 63.578125 L 175.898438 55.367188 L 178.558594 58.496094 Z M 168.828125 66.707031 " fill-opacity="1" fill-rule="nonzero"/><path fill="#f9d563" d="M 10.148438 60.738281 L 12.691406 57.511719 L 22.71875 65.359375 L 20.175781 68.589844 Z M 10.148438 60.738281 " fill-opacity="1" fill-rule="nonzero"/><path fill="#f9d563" d="M 125.0625 34.667969 L 122.574219 31.402344 L 132.726562 23.714844 L 135.214844 26.984375 Z M 125.0625 34.667969 " fill-opacity="1" fill-rule="nonzero"/><path fill="#ff917b" d="M 8.761719 4.515625 L 12.839844 5.082031 L 11.078125 17.667969 L 7 17.101562 Z M 8.761719 4.515625 " fill-opacity="1" fill-rule="nonzero"/><g clip-path="url(#28e4a8fa03)"><path fill="#e2dfd2" d="M 13.238281 38.460938 L 13.054688 42.5625 L 0.320312 42 L 0.503906 37.898438 Z M 13.238281 38.460938 " fill-opacity="1" fill-rule="nonzero"/></g><path fill="#e2dfd2" d="M 43.996094 4.5625 L 46.789062 1.546875 L 56.152344 10.171875 L 53.359375 13.183594 Z M 43.996094 4.5625 " fill-opacity="1" fill-rule="nonzero"/><path fill="#e2dfd2" d="M 197.125 32.941406 L 201.152344 32.082031 L 203.820312 44.507812 L 199.796875 45.367188 Z M 197.125 32.941406 " fill-opacity="1" fill-rule="nonzero"/><path fill="#e2dfd2" d="M 262.359375 50.070312 L 260.09375 53.496094 L 249.453125 46.503906 L 251.71875 43.078125 Z M 262.359375 50.070312 " fill-opacity="1" fill-rule="nonzero"/><path fill="#ff917b" d="M 218.851562 3.214844 L 222.875 2.355469 L 225.546875 14.78125 L 221.519531 15.640625 Z M 218.851562 3.214844 " fill-opacity="1" fill-rule="nonzero"/><path fill="#f9d563" d="M 314.894531 52.929688 L 310.804688 53.378906 L 309.417969 40.746094 L 313.507812 40.296875 Z M 314.894531 52.929688 " fill-opacity="1" fill-rule="nonzero"/><path fill="#e2dfd2" d="M 284.164062 46.054688 L 281.363281 43.050781 L 290.699219 34.402344 L 293.503906 37.40625 Z M 284.164062 46.054688 " fill-opacity="1" fill-rule="nonzero"/><path fill="#ff917b" d="M 268.484375 15.316406 L 272.539062 16.011719 L 270.386719 28.535156 L 266.328125 27.84375 Z M 268.484375 15.316406 " fill-opacity="1" fill-rule="nonzero"/><path fill="#e2dfd2" d="M 245.789062 25.707031 L 243.726562 29.257812 L 232.691406 22.902344 L 234.75 19.347656 Z M 245.789062 25.707031 " fill-opacity="1" fill-rule="nonzero"/><path fill="#ff917b" d="M 306.285156 11.953125 L 310.101562 13.5 L 305.300781 25.269531 L 301.484375 23.726562 Z M 306.285156 11.953125 " fill-opacity="1" fill-rule="nonzero"/><g clip-path="url(#6ef9ac4617)"><path fill="#f9d563" d="M 295.1875 0.613281 L 295.355469 4.714844 L 282.617188 5.230469 L 282.453125 1.128906 Z M 295.1875 0.613281 " fill-opacity="1" fill-rule="nonzero"/></g><path fill="#ff917b" d="M 364.953125 9.375 L 368.871094 10.640625 L 364.933594 22.726562 L 361.015625 21.460938 Z M 364.953125 9.375 " fill-opacity="1" fill-rule="nonzero"/><path fill="#e2dfd2" d="M 238.71875 74.058594 L 234.765625 75.199219 L 231.21875 62.996094 L 235.171875 61.851562 Z M 238.71875 74.058594 " fill-opacity="1" fill-rule="nonzero"/><path fill="#ff917b" d="M 200.402344 8.792969 L 203.089844 11.902344 L 193.433594 20.199219 L 190.746094 17.089844 Z M 200.402344 8.792969 " fill-opacity="1" fill-rule="nonzero"/><path fill="#f9d563" d="M 337.367188 17.359375 L 334.851562 20.605469 L 324.761719 12.84375 L 327.277344 9.59375 Z M 337.367188 17.359375 " fill-opacity="1" fill-rule="nonzero"/><path fill="#f9d563" d="M 222.710938 44.457031 L 225.230469 47.703125 L 215.144531 55.476562 L 212.628906 52.230469 Z M 222.710938 44.457031 " fill-opacity="1" fill-rule="nonzero"/><path fill="#ff917b" d="M 341.859375 72.347656 L 337.777344 71.816406 L 339.429688 59.214844 L 343.511719 59.746094 Z M 341.859375 72.347656 " fill-opacity="1" fill-rule="nonzero"/><path fill="#e2dfd2" d="M 334.5 39.683594 L 334.648438 35.582031 L 347.386719 36.035156 L 347.238281 40.136719 Z M 334.5 39.683594 " fill-opacity="1" fill-rule="nonzero"/><g clip-path="url(#fb6b3fcb4a)"><path fill="#e2dfd2" d="M 373.074219 62.238281 L 370.308594 65.277344 L 360.867188 56.738281 L 363.632812 53.699219 Z M 373.074219 62.238281 " fill-opacity="1" fill-rule="nonzero"/></g></g></g></g></svg>